<svg xmlns="http://www.w3.org/2000/svg" version="1.1" xmlns:xlink="http://www.w3.org/1999/xlink" width="200" height="200"><svg xmlns="http://www.w3.org/2000/svg" version="1.1" xmlns:xlink="http://www.w3.org/1999/xlink" viewBox="0 0 200 200"><rect width="200" height="200" fill="url('#gradient')"></rect><defs><linearGradient id="SvgjsLinearGradient1001" gradientTransform="rotate(45 0.5 0.5)"><stop offset="0%" stop-color="#1d1b47"></stop><stop offset="100%" stop-color="#133a5b"></stop></linearGradient></defs><g><g fill="#e04a11" transform="matrix(6.000308404009252,0,0,6.000308404009252,24.184384762050556,142.66156842011898)" stroke="#ffffff" stroke-width="0.2"><path d="M3.77-14.22L6.59-3.87L9.42-14.22L13.25-14.22L8.47 0L4.72 0L-0.03-14.22L3.77-14.22ZM20.06 0L14.29 0L14.29-14.22L19.39-14.22Q22.14-14.22 23.57-13.21Q25-12.21 25-10.29L25-10.29Q25-9.19 24.49-8.41Q23.98-7.63 23.00-7.26L23.00-7.26Q24.11-6.96 24.71-6.16Q25.30-5.36 25.30-4.21L25.30-4.21Q25.30-2.12 23.98-1.07Q22.66-0.02 20.06 0L20.06 0ZM20.12-6.04L17.71-6.04L17.71-2.64L19.96-2.64Q20.89-2.64 21.39-3.06Q21.88-3.49 21.88-4.26L21.88-4.26Q21.88-6.04 20.12-6.04L20.12-6.04ZM17.71-11.57L17.71-8.29L19.50-8.29Q20.63-8.30 21.10-8.70Q21.58-9.10 21.58-9.88L21.58-9.88Q21.58-10.78 21.06-11.18Q20.55-11.57 19.39-11.57L19.39-11.57L17.71-11.57Z"></path></g></g></svg><style>@media (prefers-color-scheme: light) { :root { filter: contrast(1) brightness(1); } }
@media (prefers-color-scheme: dark) { :root { filter: none; } }
</style></svg>